<svg xmlns="http://www.w3.org/2000/svg" width="1760.999" height="246.774" viewBox="0 0 1760.999 246.774">
  <path id="Union_58" data-name="Union 58" d="M10501.834-7533.225c-36.382,0-59.379-12.7-59.379-50.117v-41.882h39.131v36.384c0,14.762,8.57,21.284,20.592,21.284s20.6-6.522,20.6-21.284v-18.879c0-12.36-3.776-18.538-15.789-25.06l-27.806-15.783c-23.347-13.385-36.724-24.371-36.724-49.431v-31.579c0-35.538,25.851-49.305,58.576-49.428h1.6c32.74.123,58.591,13.89,58.591,49.428v39.133h-39.133v-33.647c0-15.1-8.585-20.589-20.254-20.589s-20.248,5.486-20.248,20.589v16.484c0,12.352,4.108,17.85,15.447,24.365l28.147,15.79c22.991,13.049,36.726,23.682,36.726,49.437v34.668c0,37.062-23,50.117-59.387,50.117Zm-423.1,0c-36.394,0-60.414-14.415-60.414-50.808v-144.161c0-36.565,23.8-50.68,59.921-50.805h3.718c36.125.125,59.936,14.573,59.936,50.805v144.161c0,36.393-24.027,50.808-60.423,50.808Zm-20.6-188.794v131.809c0,17.161,8.929,21.966,21.969,21.966s21.973-4.806,21.973-21.966v-131.809c0-17.164-8.923-21.97-21.973-21.97S10058.133-7739.183,10058.133-7722.019Zm1509.448,186.2c-36,0-58.748-12.562-58.748-49.571v-41.421h38.71v35.979c0,14.607,8.485,21.062,20.377,21.062s20.376-6.455,20.376-21.062v-18.681c0-12.224-3.735-18.333-15.626-24.786l-27.5-15.6c-23.093-13.251-36.335-24.117-36.335-48.9v-31.246c0-35.313,25.81-48.888,58.406-48.888h.681c32.6,0,58.406,13.574,58.406,48.888v38.708h-38.71V-7724.6c0-14.952-8.485-20.376-20.035-20.376s-20.038,5.424-20.038,20.376v16.288c0,12.221,4.077,17.663,15.288,24.117l27.84,15.626c22.486,12.74,36.022,23.169,36.329,48.013v36.139c-.4,35.923-23.066,48.6-58.736,48.6Zm-1252.771-.158v-240.282h105.381v35.01h-65.564v65.909h54.916v35.019h-54.916v69.334h66.595v35.01Zm-357.532,0-30.549-95.768h-19.912v95.768H9867V-7776.25h62.136c36.382,0,60.408,14.412,60.408,50.793v42.917c0,22.991-9.605,37.4-26.09,44.616l34.324,101.949Zm-50.461-130.1h20.948c13.034,0,21.963-4.806,21.963-21.969v-31.24c0-17.161-8.929-21.961-21.963-21.961h-20.948Zm263.054,127.578V-7776.25H10232c36.382,0,60.408,14.417,60.408,50.8v45.652c0,36.387-24.026,50.808-60.408,50.808h-22.316v79.463c-.185,0,.274,11.033.084,11.033Zm44.735-125.521h20.946c13.043,0,21.969-4.8,21.969-21.96v-33.3c0-17.164-8.926-21.97-21.969-21.97h-20.946Zm941.844,125.491v-237.7h39.4v237.7Zm226.074,0v-237.7h104.249v34.64h-64.864v65.2h54.333v34.625h-54.333v68.6h65.888v34.642Zm-322.157,0-30.555-162.993-30.566,162.993h-38.365l-37.356-237.7h38.716l19.69,169.792,30.561-169.792h35.322l30.555,169.792,19.7-169.792h36.676l-37.355,237.7Zm-230.624,0v-203.06h-39.72v-34.64h118.847v34.64h-39.731v203.06Zm489.359,0-51.955-154.513v154.513h-36v-237.694h39.051l50.254,147.023v-147.023h36v237.694Zm-48.9-237.694h0Zm-549.969,182.757q-9.615,14.541-21.92,22.553t-28.569,8.019a53.554,53.554,0,0,1-26.68-6.813,50.566,50.566,0,0,1-19.174-18.827,51.022,51.022,0,0,1-7.044-26.227,50.888,50.888,0,0,1,8.935-29.647,57.092,57.092,0,0,1,24.271-19.813,74.227,74.227,0,0,1-12.425-16.256,37.917,37.917,0,0,1-4.181-18.2,45.082,45.082,0,0,1,5.725-22.442,41.9,41.9,0,0,1,15.859-16.028,43.831,43.831,0,0,1,22.268-5.836,42.023,42.023,0,0,1,21.926,5.9,42.543,42.543,0,0,1,15.573,16.023,44.662,44.662,0,0,1,5.663,22.159q0,27.588-29.08,41.678l23.011,22.55,18.9-38.243h27.473l-28.392,57.251,34.919,35.6-16.834,17.181Zm-71.561-41.5q-6.517,8.3-6.519,20.2a30.434,30.434,0,0,0,3.49,14.488,26.016,26.016,0,0,0,9.845,10.359,27.37,27.37,0,0,0,14.255,3.779q20.61,0,33.548-24.841l-36.524-36.18Q10655.2-7643.26,10648.673-7634.964Zm15-78.485a23.293,23.293,0,0,0-4.92,14.771,20.7,20.7,0,0,0,2.054,9.154,33.659,33.659,0,0,0,5.04,7.616q2.979,3.379,7.674,7.844,11-5.834,16.317-11.1t5.319-14.433a21.27,21.27,0,0,0-5.039-14.2,16.325,16.325,0,0,0-13.046-5.95A16.111,16.111,0,0,0,10663.675-7713.449Zm606.527-62.772h0Z" transform="translate(-9866.501 7779.499)" fill="#2d2c2a" stroke="rgba(0,0,0,0)" stroke-miterlimit="10" stroke-width="1"/>
</svg>
